<?xml version="1.0" encoding="us-ascii" standalone="no"?><svg xmlns="http://www.w3.org/2000/svg" xmlns:xlink="http://www.w3.org/1999/xlink" contentStyleType="text/css" height="1375px" preserveAspectRatio="none" style="width:881px;height:1375px;background:#FFFFFF;" version="1.1" viewBox="0 0 881 1375" width="881px" zoomAndPan="magnify"><defs/><g><text fill="#000000" font-family="sans-serif" font-size="14" font-weight="bold" lengthAdjust="spacing" textLength="417" x="225.25" y="24.5332">Arquitectura del sistema para detecci&#243;n de placas en video</text><!--cluster Entrada--><g id="cluster_Entrada"><rect fill="none" height="107" rx="2.5" ry="2.5" style="stroke:#181818;stroke-width:1.0;" width="162" x="328.5" y="146.1094"/><text fill="#000000" font-family="sans-serif" font-size="14" font-weight="bold" lengthAdjust="spacing" textLength="54" x="382.5" y="162.6426">Entrada</text></g><!--cluster Lectura de video--><g id="cluster_Lectura de video"><rect fill="none" height="107" rx="2.5" ry="2.5" style="stroke:#181818;stroke-width:1.0;" width="184" x="317.5" y="277.1094"/><text fill="#000000" font-family="sans-serif" font-size="14" font-weight="bold" lengthAdjust="spacing" textLength="119" x="350" y="293.6426">Lectura de video</text></g><!--cluster Ejecuci?n paralela--><g id="cluster_Ejecuci&#243;n paralela"><rect fill="none" height="224" rx="2.5" ry="2.5" style="stroke:#181818;stroke-width:1.0;" width="192" x="313.5" y="408.1094"/><text fill="#000000" font-family="sans-serif" font-size="14" font-weight="bold" lengthAdjust="spacing" textLength="129" x="345" y="424.6426">Ejecuci&#243;n paralela</text></g><!--cluster Red neuronal convolucional--><g id="cluster_Red neuronal convolucional"><rect fill="none" height="107" rx="2.5" ry="2.5" style="stroke:#181818;stroke-width:1.0;" width="363" x="193.5" y="656.1094"/><text fill="#000000" font-family="sans-serif" font-size="14" font-weight="bold" lengthAdjust="spacing" textLength="198" x="276" y="672.6426">Red neuronal convolucional</text></g><!--cluster Post-procesamiento--><g id="cluster_Post-procesamiento"><rect fill="none" height="107" rx="2.5" ry="2.5" style="stroke:#181818;stroke-width:1.0;" width="542" x="202.5" y="787.1094"/><text fill="#000000" font-family="sans-serif" font-size="14" font-weight="bold" lengthAdjust="spacing" textLength="141" x="403" y="803.6426">Post-procesamiento</text></g><!--cluster Reconocimiento ?ptico--><g id="cluster_Reconocimiento &#243;ptico"><rect fill="none" height="205" rx="2.5" ry="2.5" style="stroke:#181818;stroke-width:1.0;" width="178" x="396.5" y="918.1094"/><text fill="#000000" font-family="sans-serif" font-size="14" font-weight="bold" lengthAdjust="spacing" textLength="162" x="404.5" y="934.6426">Reconocimiento &#243;ptico</text></g><!--cluster Salida--><g id="cluster_Salida"><rect fill="none" height="222" rx="2.5" ry="2.5" style="stroke:#181818;stroke-width:1.0;" width="340" x="535.5" y="1147.1094"/><text fill="#000000" font-family="sans-serif" font-size="14" font-weight="bold" lengthAdjust="spacing" textLength="42" x="684.5" y="1163.6426">Salida</text></g><!--entity video--><g id="elem_video"><rect fill="#F1F1F1" height="55.2188" rx="2.5" ry="2.5" style="stroke:#181818;stroke-width:0.5;" width="129" x="345" y="182.1094"/><text fill="#000000" font-family="sans-serif" font-size="14" lengthAdjust="spacing" textLength="36" x="355" y="206.6426">Video</text><text fill="#000000" font-family="sans-serif" font-size="14" lengthAdjust="spacing" textLength="109" x="355" y="224.252">(videos/test.mp4)</text></g><!--entity frames--><g id="elem_frames"><rect fill="#F1F1F1" height="55.2188" rx="2.5" ry="2.5" style="stroke:#181818;stroke-width:0.5;" width="152" x="333.5" y="313.1094"/><text fill="#000000" font-family="sans-serif" font-size="14" lengthAdjust="spacing" textLength="132" x="343.5" y="337.6426">Extracci&#243;n de frames</text><text fill="#000000" font-family="sans-serif" font-size="14" lengthAdjust="spacing" textLength="64" x="343.5" y="355.252">(OpenCV)</text></g><!--entity pool--><g id="elem_pool"><rect fill="#F1F1F1" height="55.2188" rx="2.5" ry="2.5" style="stroke:#181818;stroke-width:0.5;" width="160" x="329.5" y="444.1094"/><text fill="#000000" font-family="sans-serif" font-size="14" lengthAdjust="spacing" textLength="110" x="339.5" y="468.6426">Pool de procesos</text><text fill="#000000" font-family="sans-serif" font-size="14" lengthAdjust="spacing" textLength="140" x="339.5" y="486.252">(multiprocessing.Pool)</text></g><!--entity dispatch--><g id="elem_dispatch"><rect fill="#F1F1F1" height="55.2188" rx="2.5" ry="2.5" style="stroke:#181818;stroke-width:0.5;" width="156" x="331.5" y="561.1094"/><text fill="#000000" font-family="sans-serif" font-size="14" lengthAdjust="spacing" textLength="136" x="341.5" y="585.6426">Asignaci&#243;n de frames</text><text fill="#000000" font-family="sans-serif" font-size="14" lengthAdjust="spacing" textLength="104" x="341.5" y="603.252">process_frame()</text></g><!--entity yolo_t--><g id="elem_yolo_t"><rect fill="#F1F1F1" height="55.2188" rx="2.5" ry="2.5" style="stroke:#181818;stroke-width:0.5;" width="154" x="209.5" y="692.1094"/><text fill="#000000" font-family="sans-serif" font-size="14" lengthAdjust="spacing" textLength="113" x="219.5" y="716.6426">YOLO - Veh&#237;culos</text><text fill="#000000" font-family="sans-serif" font-size="14" lengthAdjust="spacing" textLength="134" x="219.5" y="734.252">(model_t: yolo11n.pt)</text></g><!--entity yolo_p--><g id="elem_yolo_p"><rect fill="#F1F1F1" height="55.2188" rx="2.5" ry="2.5" style="stroke:#181818;stroke-width:0.5;" width="142" x="398.5" y="692.1094"/><text fill="#000000" font-family="sans-serif" font-size="14" lengthAdjust="spacing" textLength="87" x="408.5" y="716.6426">YOLO - Placa</text><text fill="#000000" font-family="sans-serif" font-size="14" lengthAdjust="spacing" textLength="122" x="408.5" y="734.252">(model_p: placa.pt)</text></g><!--entity crop_vehicle--><g id="elem_crop_vehicle"><rect fill="#F1F1F1" height="55.2188" rx="2.5" ry="2.5" style="stroke:#181818;stroke-width:0.5;" width="146" x="218.5" y="823.1094"/><text fill="#000000" font-family="sans-serif" font-size="14" lengthAdjust="spacing" textLength="126" x="228.5" y="847.6426">Recorte de veh&#237;culo</text><text fill="#000000" font-family="sans-serif" font-size="14" lengthAdjust="spacing" textLength="90" x="228.5" y="865.252">(ROI veh&#237;culo)</text></g><!--entity crop_plate--><g id="elem_crop_plate"><rect fill="#F1F1F1" height="55.2188" rx="2.5" ry="2.5" style="stroke:#181818;stroke-width:0.5;" width="128" x="399.5" y="823.1094"/><text fill="#000000" font-family="sans-serif" font-size="14" lengthAdjust="spacing" textLength="108" x="409.5" y="847.6426">Recorte de placa</text><text fill="#000000" font-family="sans-serif" font-size="14" lengthAdjust="spacing" textLength="72" x="409.5" y="865.252">(ROI placa)</text></g><!--entity coords--><g id="elem_coords"><rect fill="#F1F1F1" height="37.6094" rx="2.5" ry="2.5" style="stroke:#181818;stroke-width:0.5;" width="166" x="562.5" y="831.6094"/><text fill="#000000" font-family="sans-serif" font-size="14" lengthAdjust="spacing" textLength="146" x="572.5" y="856.1426">Ajuste de coordenadas</text></g><!--entity ocr--><g id="elem_ocr"><rect fill="#F1F1F1" height="55.2188" rx="2.5" ry="2.5" style="stroke:#181818;stroke-width:0.5;" width="118" x="423.5" y="954.1094"/><text fill="#000000" font-family="sans-serif" font-size="14" lengthAdjust="spacing" textLength="98" x="433.5" y="978.6426">Tesseract OCR</text><text fill="#000000" font-family="sans-serif" font-size="14" lengthAdjust="spacing" textLength="83" x="433.5" y="996.252">(pytesseract)</text></g><!--entity text--><g id="elem_text"><rect fill="#F1F1F1" height="37.6094" rx="2.5" ry="2.5" style="stroke:#181818;stroke-width:0.5;" width="128" x="421.5" y="1069.1094"/><text fill="#000000" font-family="sans-serif" font-size="14" lengthAdjust="spacing" textLength="108" x="431.5" y="1093.6426">Texto de la placa</text></g><!--entity annotated--><g id="elem_annotated"><rect fill="#F1F1F1" height="55.2188" rx="2.5" ry="2.5" style="stroke:#181818;stroke-width:0.5;" width="117" x="552" y="1183.1094"/><text fill="#000000" font-family="sans-serif" font-size="14" lengthAdjust="spacing" textLength="97" x="562" y="1207.6426">Frame anotado</text><text fill="#000000" font-family="sans-serif" font-size="14" lengthAdjust="spacing" textLength="89" x="562" y="1225.252">(cajas + texto)</text></g><!--entity out_video--><g id="elem_out_video"><rect fill="#F1F1F1" height="55.2188" rx="2.5" ry="2.5" style="stroke:#181818;stroke-width:0.5;" width="156" x="551.5" y="1298.1094"/><text fill="#000000" font-family="sans-serif" font-size="14" lengthAdjust="spacing" textLength="107" x="561.5" y="1322.6426">Video procesado</text><text fill="#000000" font-family="sans-serif" font-size="14" lengthAdjust="spacing" textLength="136" x="561.5" y="1340.252">(output_video_*.mp4)</text></g><!--entity log--><g id="elem_log"><rect fill="#F1F1F1" height="55.2188" rx="2.5" ry="2.5" style="stroke:#181818;stroke-width:0.5;" width="155" x="704" y="1183.1094"/><text fill="#000000" font-family="sans-serif" font-size="14" lengthAdjust="spacing" textLength="126" x="714" y="1207.6426">Registro de tiempos</text><text fill="#000000" font-family="sans-serif" font-size="14" lengthAdjust="spacing" textLength="135" x="714" y="1225.252">(SpeedUp, eficiencia)</text></g><!--entity user--><g id="elem_user"><ellipse cx="409.5" cy="52.6094" fill="#F1F1F1" rx="8" ry="8" style="stroke:#181818;stroke-width:0.5;"/><path d="M409.5,60.6094 L409.5,87.6094 M396.5,68.6094 L422.5,68.6094 M409.5,87.6094 L396.5,102.6094 M409.5,87.6094 L422.5,102.6094 " fill="none" style="stroke:#181818;stroke-width:0.5;"/><text fill="#000000" font-family="sans-serif" font-size="14" lengthAdjust="spacing" textLength="48" x="385.5" y="118.6426">Usuario</text></g><g id="elem_GMN39"><path d="M524.5,442.1094 L524.5,467.6094 L489.59,471.6094 L524.5,475.6094 L524.5,501.1641 A0,0 0 0 0 524.5,501.1641 L696.5,501.1641 A0,0 0 0 0 696.5,501.1641 L696.5,452.1094 L686.5,442.1094 L524.5,442.1094 A0,0 0 0 0 524.5,442.1094 " fill="#FAFAFA" style="stroke:#181818;stroke-width:0.5;"/><path d="M686.5,442.1094 L686.5,452.1094 L696.5,452.1094 L686.5,442.1094 " fill="#FAFAFA" style="stroke:#181818;stroke-width:0.5;"/><text fill="#000000" font-family="sans-serif" font-size="13" lengthAdjust="spacing" textLength="85" x="530.5" y="460.6045">Paralelizaci&#243;n:</text><text fill="#000000" font-family="sans-serif" font-size="13" lengthAdjust="spacing" textLength="125" x="530.5" y="476.9561">- detector_paralelo.py</text><text fill="#000000" font-family="sans-serif" font-size="13" lengthAdjust="spacing" textLength="151" x="530.5" y="493.3076">- detector_NProcesses.py</text></g><g id="elem_GMN42"><path d="M6,829.1094 L6,871.8125 A0,0 0 0 0 6,871.8125 L183,871.8125 A0,0 0 0 0 183,871.8125 L183,839.1094 L173,829.1094 L129.09,829.1094 L246.72,747.3394 L121.09,829.1094 L6,829.1094 A0,0 0 0 0 6,829.1094 " fill="#FAFAFA" style="stroke:#181818;stroke-width:0.5;"/><path d="M173,829.1094 L173,839.1094 L183,839.1094 L173,829.1094 " fill="#FAFAFA" style="stroke:#181818;stroke-width:0.5;"/><text fill="#000000" font-family="sans-serif" font-size="13" lengthAdjust="spacing" textLength="144" x="12" y="847.6045">YOLO detecta veh&#237;culos:</text><text fill="#000000" font-family="sans-serif" font-size="13" lengthAdjust="spacing" textLength="156" x="12" y="863.9561">car, motorcycle, bus, truck</text></g><!--link user to video--><g id="link_user_video"><path d="M409.5,122.1394 C409.5,141.4494 409.5,158.4394 409.5,175.8594 " fill="none" id="user-to-video" style="stroke:#181818;stroke-width:1.0;"/><polygon fill="#181818" points="409.5,181.8594,413.5,172.8594,409.5,176.8594,405.5,172.8594,409.5,181.8594" style="stroke:#181818;stroke-width:1.0;"/></g><!--link video to frames--><g id="link_video_frames"><path d="M409.5,237.3394 C409.5,259.4794 409.5,284.7894 409.5,306.9194 " fill="none" id="video-to-frames" style="stroke:#181818;stroke-width:1.0;"/><polygon fill="#181818" points="409.5,312.9194,413.5,303.9194,409.5,307.9194,405.5,303.9194,409.5,312.9194" style="stroke:#181818;stroke-width:1.0;"/></g><!--link frames to pool--><g id="link_frames_pool"><path d="M409.5,368.3394 C409.5,390.4794 409.5,415.7894 409.5,437.9194 " fill="none" id="frames-to-pool" style="stroke:#181818;stroke-width:1.0;"/><polygon fill="#181818" points="409.5,443.9194,413.5,434.9194,409.5,438.9194,405.5,434.9194,409.5,443.9194" style="stroke:#181818;stroke-width:1.0;"/></g><!--link pool to dispatch--><g id="link_pool_dispatch"><path d="M409.5,499.2794 C409.5,517.8594 409.5,536.5394 409.5,555.0794 " fill="none" id="pool-to-dispatch" style="stroke:#181818;stroke-width:1.0;"/><polygon fill="#181818" points="409.5,561.0794,413.5,552.0794,409.5,556.0794,405.5,552.0794,409.5,561.0794" style="stroke:#181818;stroke-width:1.0;"/></g><!--link dispatch to yolo_t--><g id="link_dispatch_yolo_t"><path d="M384.01,616.3394 C362.9,638.4794 337.1904,665.4469 316.0904,687.5769 " fill="none" id="dispatch-to-yolo_t" style="stroke:#181818;stroke-width:1.0;"/><polygon fill="#181818" points="311.95,691.9194,321.0556,688.1659,315.4003,688.3006,315.2656,682.6454,311.95,691.9194" style="stroke:#181818;stroke-width:1.0;"/></g><!--link yolo_t to crop_vehicle--><g id="link_yolo_t_crop_vehicle"><path d="M287.54,747.3394 C288.39,769.4794 289.377,794.7939 290.237,816.9239 " fill="none" id="yolo_t-to-crop_vehicle" style="stroke:#181818;stroke-width:1.0;"/><polygon fill="#181818" points="290.47,822.9194,294.1175,813.7708,290.2758,817.9231,286.1235,814.0815,290.47,822.9194" style="stroke:#181818;stroke-width:1.0;"/></g><!--link crop_vehicle to yolo_p--><g id="link_crop_vehicle_yolo_p"><path d="M324.8,822.9494 C341.85,809.5194 363.06,793.1494 382.5,779.1094 C397.4,768.3494 409.0982,760.2984 423.8382,750.4684 " fill="none" id="crop_vehicle-to-yolo_p" style="stroke:#181818;stroke-width:1.0;"/><polygon fill="#181818" points="428.83,747.1394,419.123,748.805,424.6702,749.9135,423.5617,755.4607,428.83,747.1394" style="stroke:#181818;stroke-width:1.0;"/></g><!--link yolo_p to crop_plate--><g id="link_yolo_p_crop_plate"><path d="M468.26,747.3394 C467.23,769.4794 466.049,794.7959 465.019,816.9259 " fill="none" id="yolo_p-to-crop_plate" style="stroke:#181818;stroke-width:1.0;"/><polygon fill="#181818" points="464.74,822.9194,469.1541,814.1151,464.9725,817.9248,461.1628,813.7431,464.74,822.9194" style="stroke:#181818;stroke-width:1.0;"/></g><!--link crop_plate to ocr--><g id="link_crop_plate_ocr"><path d="M467.44,878.3394 C470.7,900.4794 474.4356,925.8534 477.6956,947.9834 " fill="none" id="crop_plate-to-ocr" style="stroke:#181818;stroke-width:1.0;"/><polygon fill="#181818" points="478.57,953.9194,481.2156,944.4325,477.8413,948.9728,473.3011,945.5984,478.57,953.9194" style="stroke:#181818;stroke-width:1.0;"/></g><!--link ocr to text--><g id="link_ocr_text"><path d="M483.26,1009.2494 C483.8,1027.9994 484.3391,1046.5818 484.8091,1063.0718 " fill="none" id="ocr-to-text" style="stroke:#181818;stroke-width:1.0;"/><polygon fill="#181818" points="484.98,1069.0694,488.722,1059.9591,484.8375,1064.0714,480.7252,1060.187,484.98,1069.0694" style="stroke:#181818;stroke-width:1.0;"/></g><!--link yolo_p to coords--><g id="link_yolo_p_coords"><path d="M505.97,747.3394 C540.3,772.4994 585.9511,805.9619 615.8511,827.8819 " fill="none" id="yolo_p-to-coords" style="stroke:#181818;stroke-width:1.0;"/><polygon fill="#181818" points="620.69,831.4294,615.7966,822.8822,616.6575,828.4731,611.0666,829.3341,620.69,831.4294" style="stroke:#181818;stroke-width:1.0;"/></g><!--link coords to annotated--><g id="link_coords_annotated"><path d="M643.72,869.8594 C637.96,928.6994 620.464,1107.7079 613.684,1177.0379 " fill="none" id="coords-to-annotated" style="stroke:#181818;stroke-width:1.0;"/><polygon fill="#181818" points="613.1,1183.0094,617.957,1174.4414,613.5866,1178.0331,609.995,1173.6628,613.1,1183.0094" style="stroke:#181818;stroke-width:1.0;"/></g><!--link text to annotated--><g id="link_text_annotated"><path d="M504.21,1107.1494 C525.05,1127.2394 554.6304,1155.7452 578.5304,1178.7852 " fill="none" id="text-to-annotated" style="stroke:#181818;stroke-width:1.0;"/><polygon fill="#181818" points="582.85,1182.9494,579.1467,1173.8233,579.2503,1179.4792,573.5944,1179.5828,582.85,1182.9494" style="stroke:#181818;stroke-width:1.0;"/></g><!--link annotated to out_video--><g id="link_annotated_out_video"><path d="M615,1238.3894 C618.03,1256.3994 621.0156,1274.1324 624.0356,1292.1024 " fill="none" id="annotated-to-out_video" style="stroke:#181818;stroke-width:1.0;"/><polygon fill="#181818" points="625.03,1298.0194,627.4831,1288.4809,624.2013,1293.0885,619.5937,1289.8068,625.03,1298.0194" style="stroke:#181818;stroke-width:1.0;"/></g><!--link dispatch to log--><g id="link_dispatch_log"><path d="M487.94,607.1294 C597.08,636.6594 781.5,707.5794 781.5,849.6094 C781.5,849.6094 781.5,849.6094 781.5,982.6094 C781.5,1055.1194 781.5,1134.6694 781.5,1177.0494 " fill="none" id="dispatch-to-log" style="stroke:#181818;stroke-width:1.0;"/><polygon fill="#181818" points="781.5,1183.0494,785.5,1174.0494,781.5,1178.0494,777.5,1174.0494,781.5,1183.0494" style="stroke:#181818;stroke-width:1.0;"/></g><!--SRC=[RLJDRjim3BxxAOISsYt9K62d70OKHGSCA9OW_G66RGXKcKdKsg8cqLspOO-qKn-XBpPATEoutI6nI96VFdqYIPOgKAVXHsC933L1gn8g5MqagBNoEZjuozZd9yTBvIjjT5JWr8Cj0OiYtbkNucfLeqEp3LY3ej30mKxSwX9_MhTHQrt5mnslpRtUm2Njc4TW2jfjgiC0WxL71uvUXXJQ40OrkewD3XP7Ybar4K9HT35gTEuew5AFrEz2gQytYV4tTvIPntS4aQQrVt_yFUNATVuKHKj9ZIuwHMIpHJb_PCnUa3MpXCYeSm_kx4R0n3b0Exy3qqXMkba5LKkhkw4QBH2hB7900n4JQjrKPCMEBE0qXHpdotfU9JwdqMwSViMdpLbb-qXebJPwJMOx8BQ4KZbe0ZfTCHdtW1NpJDOhVb_c5tCrKJUmVVvhcae88bVCYcPgXnMUdBYf9-6Nx1Nz5s2HYgZBzJEfgc6c7v1SOAI9N4dNbh7shx44Wu4WFzAU5YClvvzwMovl0leL-wpXwXbc-fPFoihhWmosASUVtZLHmWrYAC5nOKM9ItPy8Qf9tM25gtf-ycGDlXBqYby8k9f8pS-MJC3lQEyHAT24TFOLF38A7rrf8PZF9VOEJhtKbUsg_MDwUAKT4ZSVOnjznpblSrOhYNPfbw3ikgCjFSd0Xdn3grpygpTzg-3UAJ9kU5g4p8uiyDLILLnwWFBQZnMihM4DZ6qrhN2JAATELPF9XxRjyd-ssywHJ_RaEaz_sUfAUB_8thRM2lbcr-2v3uq-mKkyx-FbiVjbtablmB-ypf8FqkJjvPCzlQWf-8Mhw9O2tIavk4uIgU0uddTsioM5Qr5X8OF3_f9sdnKJcSuy25VjKC6ftnswFoza3a1C6-2urnctHRz58gmJV2jWxa_9rNt_n5bXT1ZpW6T4isCDn-gsYUCqvirz3_eF]--></g></svg>