<?xml version="1.0" encoding="us-ascii" standalone="no"?><svg xmlns="http://www.w3.org/2000/svg" xmlns:xlink="http://www.w3.org/1999/xlink" contentStyleType="text/css" height="1306px" preserveAspectRatio="none" style="width:473px;height:1306px;background:#FFFFFF;" version="1.1" viewBox="0 0 473 1306" width="473px" zoomAndPan="magnify"><defs/><g><text fill="#000000" font-family="sans-serif" font-size="14" font-weight="bold" lengthAdjust="spacing" textLength="445" x="10" y="24.5332">Arquitectura del sistema para detecci&#243;n de placas en im&#225;genes</text><!--cluster Entrada--><g id="cluster_Entrada"><rect fill="none" height="107" rx="2.5" ry="2.5" style="stroke:#181818;stroke-width:1.0;" width="174" x="48.5" y="146.1094"/><text fill="#000000" font-family="sans-serif" font-size="14" font-weight="bold" lengthAdjust="spacing" textLength="54" x="108.5" y="162.6426">Entrada</text></g><!--cluster Preprocesamiento de imagen--><g id="cluster_Preprocesamiento de imagen"><rect fill="none" height="401" rx="2.5" ry="2.5" style="stroke:#181818;stroke-width:1.0;" width="244" x="13.5" y="277.1094"/><text fill="#000000" font-family="sans-serif" font-size="14" font-weight="bold" lengthAdjust="spacing" textLength="206" x="32.5" y="293.6426">Preprocesamiento de imagen</text></g><!--cluster Red neuronal convolucional--><g id="cluster_Red neuronal convolucional"><rect fill="none" height="107" rx="2.5" ry="2.5" style="stroke:#181818;stroke-width:1.0;" width="226" x="22.5" y="702.1094"/><text fill="#000000" font-family="sans-serif" font-size="14" font-weight="bold" lengthAdjust="spacing" textLength="198" x="36.5" y="718.6426">Red neuronal convolucional</text></g><!--cluster Post-procesamiento--><g id="cluster_Post-procesamiento"><rect fill="none" height="107" rx="2.5" ry="2.5" style="stroke:#181818;stroke-width:1.0;" width="182" x="44.5" y="833.1094"/><text fill="#000000" font-family="sans-serif" font-size="14" font-weight="bold" lengthAdjust="spacing" textLength="141" x="65" y="849.6426">Post-procesamiento</text></g><!--cluster Reconocimiento ?ptico--><g id="cluster_Reconocimiento &#243;ptico"><rect fill="none" height="205" rx="2.5" ry="2.5" style="stroke:#181818;stroke-width:1.0;" width="178" x="46.5" y="964.1094"/><text fill="#000000" font-family="sans-serif" font-size="14" font-weight="bold" lengthAdjust="spacing" textLength="162" x="54.5" y="980.6426">Reconocimiento &#243;ptico</text></g><!--cluster Salida--><g id="cluster_Salida"><rect fill="none" height="107" rx="2.5" ry="2.5" style="stroke:#181818;stroke-width:1.0;" width="202" x="34.5" y="1193.1094"/><text fill="#000000" font-family="sans-serif" font-size="14" font-weight="bold" lengthAdjust="spacing" textLength="42" x="114.5" y="1209.6426">Salida</text></g><!--entity img--><g id="elem_img"><rect fill="#F1F1F1" height="55.2188" rx="2.5" ry="2.5" style="stroke:#181818;stroke-width:0.5;" width="142" x="64.5" y="182.1094"/><text fill="#000000" font-family="sans-serif" font-size="14" lengthAdjust="spacing" textLength="99" x="74.5" y="206.6426">Imagen est&#225;tica</text><text fill="#000000" font-family="sans-serif" font-size="14" lengthAdjust="spacing" textLength="122" x="74.5" y="224.252">(Dataset Mercosur)</text></g><!--entity gray--><g id="elem_gray"><rect fill="#F1F1F1" height="37.6094" rx="2.5" ry="2.5" style="stroke:#181818;stroke-width:0.5;" width="211" x="30" y="313.1094"/><text fill="#000000" font-family="sans-serif" font-size="14" lengthAdjust="spacing" textLength="191" x="40" y="337.6426">Conversi&#243;n a escala de grises</text></g><!--entity bin--><g id="elem_bin"><rect fill="#F1F1F1" height="37.6094" rx="2.5" ry="2.5" style="stroke:#181818;stroke-width:0.5;" width="152" x="59.5" y="411.1094"/><text fill="#000000" font-family="sans-serif" font-size="14" lengthAdjust="spacing" textLength="132" x="69.5" y="435.6426">Binarizaci&#243;n / Umbral</text></g><!--entity blur--><g id="elem_blur"><rect fill="#F1F1F1" height="37.6094" rx="2.5" ry="2.5" style="stroke:#181818;stroke-width:0.5;" width="146" x="62.5" y="509.1094"/><text fill="#000000" font-family="sans-serif" font-size="14" lengthAdjust="spacing" textLength="126" x="72.5" y="533.6426">Filtrado y suavizado</text></g><!--entity edges--><g id="elem_edges"><rect fill="#F1F1F1" height="55.2188" rx="2.5" ry="2.5" style="stroke:#181818;stroke-width:0.5;" width="151" x="60" y="607.1094"/><text fill="#000000" font-family="sans-serif" font-size="14" lengthAdjust="spacing" textLength="131" x="70" y="631.6426">Detecci&#243;n de bordes</text><text fill="#000000" font-family="sans-serif" font-size="14" lengthAdjust="spacing" textLength="127" x="70" y="649.252">(Canny + dilataci&#243;n)</text></g><!--entity yolo_p--><g id="elem_yolo_p"><rect fill="#F1F1F1" height="55.2188" rx="2.5" ry="2.5" style="stroke:#181818;stroke-width:0.5;" width="193" x="39" y="738.1094"/><text fill="#000000" font-family="sans-serif" font-size="14" lengthAdjust="spacing" textLength="173" x="49" y="762.6426">YOLO - Detecci&#243;n de placa</text><text fill="#000000" font-family="sans-serif" font-size="14" lengthAdjust="spacing" textLength="122" x="49" y="780.252">(model_p: placa.pt)</text></g><!--entity crop--><g id="elem_crop"><rect fill="#F1F1F1" height="55.2188" rx="2.5" ry="2.5" style="stroke:#181818;stroke-width:0.5;" width="149" x="61" y="869.1094"/><text fill="#000000" font-family="sans-serif" font-size="14" lengthAdjust="spacing" textLength="129" x="71" y="893.6426">Recorte de la regi&#243;n</text><text fill="#000000" font-family="sans-serif" font-size="14" lengthAdjust="spacing" textLength="107" x="71" y="911.252">(ROI de la placa)</text></g><!--entity ocr--><g id="elem_ocr"><rect fill="#F1F1F1" height="55.2188" rx="2.5" ry="2.5" style="stroke:#181818;stroke-width:0.5;" width="118" x="76.5" y="1000.1094"/><text fill="#000000" font-family="sans-serif" font-size="14" lengthAdjust="spacing" textLength="98" x="86.5" y="1024.6426">Tesseract OCR</text><text fill="#000000" font-family="sans-serif" font-size="14" lengthAdjust="spacing" textLength="83" x="86.5" y="1042.252">(pytesseract)</text></g><!--entity text--><g id="elem_text"><rect fill="#F1F1F1" height="37.6094" rx="2.5" ry="2.5" style="stroke:#181818;stroke-width:0.5;" width="128" x="71.5" y="1115.1094"/><text fill="#000000" font-family="sans-serif" font-size="14" lengthAdjust="spacing" textLength="108" x="81.5" y="1139.6426">Texto de la placa</text></g><!--entity out--><g id="elem_out"><rect fill="#F1F1F1" height="55.2188" rx="2.5" ry="2.5" style="stroke:#181818;stroke-width:0.5;" width="169" x="51" y="1229.1094"/><text fill="#000000" font-family="sans-serif" font-size="14" lengthAdjust="spacing" textLength="149" x="61" y="1253.6426">Resultado de detecci&#243;n</text><text fill="#000000" font-family="sans-serif" font-size="14" lengthAdjust="spacing" textLength="90" x="61" y="1271.252">(placa + texto)</text></g><!--entity user--><g id="elem_user"><ellipse cx="135.5" cy="52.6094" fill="#F1F1F1" rx="8" ry="8" style="stroke:#181818;stroke-width:0.5;"/><path d="M135.5,60.6094 L135.5,87.6094 M122.5,68.6094 L148.5,68.6094 M135.5,87.6094 L122.5,102.6094 M135.5,87.6094 L148.5,102.6094 " fill="none" style="stroke:#181818;stroke-width:0.5;"/><text fill="#000000" font-family="sans-serif" font-size="14" lengthAdjust="spacing" textLength="48" x="111.5" y="118.6426">Usuario</text></g><g id="elem_GMN29"><path d="M267.5,736.1094 L267.5,761.6094 L232.05,765.6094 L267.5,769.6094 L267.5,795.1641 A0,0 0 0 0 267.5,795.1641 L465.5,795.1641 A0,0 0 0 0 465.5,795.1641 L465.5,746.1094 L455.5,736.1094 L267.5,736.1094 A0,0 0 0 0 267.5,736.1094 " fill="#FAFAFA" style="stroke:#181818;stroke-width:0.5;"/><path d="M455.5,736.1094 L455.5,746.1094 L465.5,746.1094 L455.5,736.1094 " fill="#FAFAFA" style="stroke:#181818;stroke-width:0.5;"/><text fill="#000000" font-family="sans-serif" font-size="13" lengthAdjust="spacing" textLength="177" x="273.5" y="754.6045">Red neuronal YOLO entrenada</text><text fill="#000000" font-family="sans-serif" font-size="13" lengthAdjust="spacing" textLength="130" x="273.5" y="770.9561">para localizar la regi&#243;n</text><text fill="#000000" font-family="sans-serif" font-size="13" lengthAdjust="spacing" textLength="117" x="273.5" y="787.3076">de la placa vehicular</text></g><!--link user to img--><g id="link_user_img"><path d="M135.5,122.1394 C135.5,141.4494 135.5,158.4394 135.5,175.8594 " fill="none" id="user-to-img" style="stroke:#181818;stroke-width:1.0;"/><polygon fill="#181818" points="135.5,181.8594,139.5,172.8594,135.5,176.8594,131.5,172.8594,135.5,181.8594" style="stroke:#181818;stroke-width:1.0;"/></g><!--link img to gray--><g id="link_img_gray"><path d="M135.5,237.3494 C135.5,260.3694 135.5,286.9594 135.5,307.0294 " fill="none" id="img-to-gray" style="stroke:#181818;stroke-width:1.0;"/><polygon fill="#181818" points="135.5,313.0294,139.5,304.0294,135.5,308.0294,131.5,304.0294,135.5,313.0294" style="stroke:#181818;stroke-width:1.0;"/></g><!--link gray to bin--><g id="link_gray_bin"><path d="M135.5,351.1694 C135.5,368.2194 135.5,387.6694 135.5,404.8094 " fill="none" id="gray-to-bin" style="stroke:#181818;stroke-width:1.0;"/><polygon fill="#181818" points="135.5,410.8094,139.5,401.8094,135.5,405.8094,131.5,401.8094,135.5,410.8094" style="stroke:#181818;stroke-width:1.0;"/></g><!--link bin to blur--><g id="link_bin_blur"><path d="M135.5,449.1694 C135.5,466.2194 135.5,485.6694 135.5,502.8094 " fill="none" id="bin-to-blur" style="stroke:#181818;stroke-width:1.0;"/><polygon fill="#181818" points="135.5,508.8094,139.5,499.8094,135.5,503.8094,131.5,499.8094,135.5,508.8094" style="stroke:#181818;stroke-width:1.0;"/></g><!--link blur to edges--><g id="link_blur_edges"><path d="M135.5,547.3094 C135.5,563.7994 135.5,582.3094 135.5,600.9994 " fill="none" id="blur-to-edges" style="stroke:#181818;stroke-width:1.0;"/><polygon fill="#181818" points="135.5,606.9994,139.5,597.9994,135.5,601.9994,131.5,597.9994,135.5,606.9994" style="stroke:#181818;stroke-width:1.0;"/></g><!--link edges to yolo_p--><g id="link_edges_yolo_p"><path d="M135.5,662.3394 C135.5,684.4794 135.5,709.7894 135.5,731.9194 " fill="none" id="edges-to-yolo_p" style="stroke:#181818;stroke-width:1.0;"/><polygon fill="#181818" points="135.5,737.9194,139.5,728.9194,135.5,732.9194,131.5,728.9194,135.5,737.9194" style="stroke:#181818;stroke-width:1.0;"/></g><!--link yolo_p to crop--><g id="link_yolo_p_crop"><path d="M135.5,793.3394 C135.5,815.4794 135.5,840.7894 135.5,862.9194 " fill="none" id="yolo_p-to-crop" style="stroke:#181818;stroke-width:1.0;"/><polygon fill="#181818" points="135.5,868.9194,139.5,859.9194,135.5,863.9194,131.5,859.9194,135.5,868.9194" style="stroke:#181818;stroke-width:1.0;"/></g><!--link crop to ocr--><g id="link_crop_ocr"><path d="M135.5,924.3394 C135.5,946.4794 135.5,971.7894 135.5,993.9194 " fill="none" id="crop-to-ocr" style="stroke:#181818;stroke-width:1.0;"/><polygon fill="#181818" points="135.5,999.9194,139.5,990.9194,135.5,994.9194,131.5,990.9194,135.5,999.9194" style="stroke:#181818;stroke-width:1.0;"/></g><!--link ocr to text--><g id="link_ocr_text"><path d="M135.5,1055.2494 C135.5,1073.9994 135.5,1092.5794 135.5,1109.0694 " fill="none" id="ocr-to-text" style="stroke:#181818;stroke-width:1.0;"/><polygon fill="#181818" points="135.5,1115.0694,139.5,1106.0694,135.5,1110.0694,131.5,1106.0694,135.5,1115.0694" style="stroke:#181818;stroke-width:1.0;"/></g><!--link text to out--><g id="link_text_out"><path d="M135.5,1153.1494 C135.5,1173.2394 135.5,1199.9094 135.5,1222.9494 " fill="none" id="text-to-out" style="stroke:#181818;stroke-width:1.0;"/><polygon fill="#181818" points="135.5,1228.9494,139.5,1219.9494,135.5,1223.9494,131.5,1219.9494,135.5,1228.9494" style="stroke:#181818;stroke-width:1.0;"/></g><!--SRC=[PLJ1RXCn4BtxAqPxeaA1EmSaI42g10fAsmC2L4syqurLhsSPUmC1yJ7zXdv2VeondKIRzh2EFPwycVVcxIQNFC4x-JcwH3QDWj2IX-XYeXvXm1BGA-lsZq6tC7Yq6842k7x_q56WQ4oyTo7dzj1pOBiHxWcIZ3IvYHji-PSB7ToXZzER0UqzTdILTjgBQ1iOEZzDiDmF72Yafoa6RMA1vYQEA8uRqCx6I6BCAGUQ3o49jjZ0NmFmxRBNKW4eflr3SXQ_XnSBJ1WfmMSIot6KYnyPn_MT-MVCeJbelWWDmfOYzavRuIo6As07v3c7BKaiGg4MiEYpUD29YnGBPYUuowdlNT1-_s1LzJNSz6j1NrBMBkICZyxdhXbseDoscjjolVUZv8J5sLJMB2r5vJB747Rm4bhdbLMvhtIexNHIKq8hQY7GA1pGgyHXotwqBfygePFgq7nTVbh231RFdQ0bUrRBt0vlQk3La2xA77Ri-NOubv1Zcfs9U91kHPObKKPLpOIwN4EXLylBGwnWLoPMU7X2n6RNkSDSze-33fQVaRYcgDPGny1olbBmOPUEaTenswBiDVskqpsMBLMJHi-gNg5t9rUjA8u-vNcrD7bXSfMCe0F9_-TAWCU2b8qAizdRuZHzohuu92_bbCsWJztdmUUbdEeuorhE1xNhJuaKcV9IJfcRFcLVgEIbtcWt9h2gBwxR9E2x8zYPGOe5L4UXe2-JALy6p-fnjQPCfcOcmi6MDiwE7iLGK2mjOlu3]--></g></svg>